<?xml version="1.0" encoding="UTF-8" standalone="no"?>
<!-- Created with Inkscape (http://www.inkscape.org/) -->

<svg
   xmlns:dc="http://purl.org/dc/elements/1.1/"
   xmlns:cc="http://creativecommons.org/ns#"
   xmlns:rdf="http://www.w3.org/1999/02/22-rdf-syntax-ns#"
   xmlns:svg="http://www.w3.org/2000/svg"
   xmlns="http://www.w3.org/2000/svg"
   xmlns:sodipodi="http://sodipodi.sourceforge.net/DTD/sodipodi-0.dtd"
   xmlns:inkscape="http://www.inkscape.org/namespaces/inkscape"
   width="56mm"
   height="56mm"
   viewBox="0 0 55.999995 55.999999"
   version="1.1"
   id="svg8"
   inkscape:version="0.92.4 (5da689c313, 2019-01-14)"
   sodipodi:docname="academia.svg">
  <defs
     id="defs2" />
  <sodipodi:namedview
     id="base"
     pagecolor="#ffffff"
     bordercolor="#666666"
     borderopacity="1.0"
     inkscape:pageopacity="0.0"
     inkscape:pageshadow="2"
     inkscape:zoom="2.8"
     inkscape:cx="99.181017"
     inkscape:cy="90.57338"
     inkscape:document-units="mm"
     inkscape:current-layer="layer3"
     showgrid="false"
     inkscape:object-paths="false"
     inkscape:snap-nodes="false"
     fit-margin-top="0"
     fit-margin-left="0"
     fit-margin-right="0"
     fit-margin-bottom="0"
     inkscape:window-width="1920"
     inkscape:window-height="1017"
     inkscape:window-x="1912"
     inkscape:window-y="-8"
     inkscape:window-maximized="1" />
  <metadata
     id="metadata5">
    <rdf:RDF>
      <cc:Work
         rdf:about="">
        <dc:format>image/svg+xml</dc:format>
        <dc:type
           rdf:resource="http://purl.org/dc/dcmitype/StillImage" />
        <dc:title></dc:title>
      </cc:Work>
    </rdf:RDF>
  </metadata>
  <g
     inkscape:groupmode="layer"
     id="layer3"
     inkscape:label="圖層 3"
     transform="translate(-56.546818,47.81487)"
     style="display:inline">
    <path
       style="fill:#ffffff;fill-opacity:1;stroke:none;stroke-width:0.35277778;stroke-linecap:butt;stroke-linejoin:round;stroke-miterlimit:4;stroke-dasharray:none;stroke-opacity:1"
       d="m 62.480395,-27.704943 c -0.06229,-0.0028 -0.1286,0.0011 -0.199472,0.01291 -1.133927,0.18899 -1.322916,0.378273 -1.322916,0.378273 l 0.661458,1.228349 -2.834968,0.661458 c 0,0 0.378346,2.92939 1.134298,3.401859 0.755951,0.472469 1.79524,-0.189135 1.795237,-0.189135 0,0 -0.661453,2.268077 0,2.268077 0.661461,0 1.606622,-1.606629 1.606622,-2.268077 v -0.756028 c 0,0 0.850151,0.09443 1.606103,-0.09457 0.755951,-0.18899 2.078868,-1.511602 1.984374,-2.267562 -0.09449,-0.755948 -1.228343,-1.323218 -1.700818,-1.228719 -0.472464,0.0945 -1.748361,0.330954 -1.748361,0.330954 0,0 -0.04723,-1.436275 -0.981557,-1.477801 z m 2.746603,2.103749 c 0,0 -0.133535,0.467927 -0.267169,0.802019 -0.133635,0.3341 -1.59562,0.636727 -1.59562,0.636727 l -0.0079,-0.971076 z m -3.207039,0.802019 -0.133842,0.801499 -1.002006,0.401011 -0.334349,-0.868683 z"
       id="path853"
       inkscape:connector-curvature="0"
       sodipodi:nodetypes="cccccscssccccccccccccccccc" />
    <path
       style="fill:#ffffff;fill-opacity:1;stroke:none;stroke-width:0.35277778;stroke-linecap:butt;stroke-linejoin:round;stroke-miterlimit:4;stroke-dasharray:none;stroke-opacity:1"
       d="m 73.046676,-26.833605 c -0.533559,0.02003 -0.497128,0.361219 -0.20774,0.485242 0.330729,0.14174 0.472323,0.566891 0.472323,0.566891 l -0.944647,0.236162 c 0,0 -0.425445,-0.614064 -0.94516,-0.472324 -0.519719,0.14174 0.141962,0.850223 0.283702,1.039212 0.14174,0.188992 0.09457,0.944648 0.09457,0.944648 0,0 -1.37046,-0.141673 -2.031918,0.09457 -0.661458,0.23623 -0.850151,1.181547 0.378272,1.134298 1.228421,-0.0472 2.267413,-0.614289 2.409153,-0.425297 0.141745,0.188987 -0.566597,1.133779 -1.180806,1.464509 -0.614209,0.330729 -2.598656,0.425365 -1.748214,0.850595 0.850448,0.425217 1.464366,0.141592 2.267562,-0.189137 0.803201,-0.330729 1.512128,-1.039291 1.606621,-1.464509 0.09449,-0.425222 -0.04717,-0.99219 0.756026,-0.992187 0.803201,0 1.511612,0.330504 2.59829,0.377754 1.086683,0.0472 2.032066,-0.850448 0.56741,-0.992188 -1.46466,-0.14174 -2.362648,-0.236162 -2.362648,-0.236162 0,0 1.228495,-0.23616 1.086755,-0.566892 -0.14174,-0.330729 7.4e-5,-1.03928 -0.566891,-1.133779 -0.566962,-0.0945 -1.606618,0.283186 -1.606618,0.283186 0,0 0.141742,-0.897696 -0.661459,-0.992186 -0.100401,-0.0118 -0.188362,-0.01527 -0.264583,-0.01241 z m 1.705912,1.382936 c 0.141742,0.42522 -0.283777,1.109862 -0.283777,1.109862 0,0 -0.330507,-0.04687 -0.54312,-0.283113 -0.212612,-0.23623 0.826897,-0.826749 0.826897,-0.826749 z m -2.00822,0.306883 c 0,0 0.425223,0.236386 0.496094,0.519866 0.07087,0.283492 -0.377756,0.543119 -0.377756,0.543119 0,0 -0.118483,-0.212688 -0.307475,-0.425296 -0.188984,-0.212612 0.189137,-0.637689 0.189137,-0.637689 z"
       id="path884"
       inkscape:connector-curvature="0"
       sodipodi:nodetypes="ccccccccccscccccsccccccccccccccc" />
    <path
       style="fill:#ffffff;fill-opacity:1;stroke:none;stroke-width:0.35277778;stroke-linecap:butt;stroke-linejoin:round;stroke-miterlimit:4;stroke-dasharray:none;stroke-opacity:1"
       d="m 74.020113,-22.899585 c 0,0 2.078868,-0.0472 2.456844,0.56697 0.377975,0.61421 0.09449,2.2206 0.09449,2.2206 0,0 -0.283483,-0.80319 -0.944941,-1.41741 -0.661458,-0.61421 -1.606396,-1.37016 -1.606396,-1.37016 z"
       id="path894"
       inkscape:connector-curvature="0" />
    <path
       style="fill:#ffffff;fill-opacity:1;stroke:none;stroke-width:0.35277778;stroke-linecap:butt;stroke-linejoin:round;stroke-miterlimit:4;stroke-dasharray:none;stroke-opacity:1"
       d="m 87.683205,-26.342161 c -0.36645,-0.02349 -0.98642,0.27726 -1.66294,0.352433 -0.90203,0.100229 -1.00258,0.166979 -1.20303,-0.200504 -0.20045,-0.367501 -1.069007,0.334052 -1.703768,0.567923 -0.634768,0.233849 -1.10226,0.06666 -1.10226,0.06666 -0.501131,0.367501 0.734737,0.801703 1.002006,0.935344 0.267267,0.133632 1.59e-4,0.534422 -0.06666,0.835092 -0.06682,0.300681 -0.734944,1.536957 -1.135849,1.937867 -0.400904,0.400899 -0.802018,0.467601 -0.802018,0.835091 0,0.367519 0.734946,0.568227 1.135848,0.434599 0.400905,-0.133641 0.401087,-1.503458 0.701765,-1.536859 0.300683,-0.03341 0.267169,0.133425 0.267169,0.534334 0,0.400902 0.133736,0.735405 0.401007,0.267685 0.267269,-0.467731 0.70156,-0.501494 1.2361,-0.735357 0.53454,-0.233862 -0.46767,-0.434292 -0.46767,-0.567923 0,-0.133641 0.16691,-0.467672 0.16691,-0.467672 l 1.0356,-0.233577 c 0,0 0.20079,0.4005 -0.0331,1.068668 -0.23386,0.668182 -0.76843,1.63711 -0.76843,1.63711 0,0 1.26938,-0.534519 1.40301,-1.236099 0.13364,-0.701591 0.26743,-1.419741 0.60152,-1.453142 0.69305,-0.123161 0.62611,0.845555 0.60151,1.152385 -0.0167,0.334089 -0.53457,1.269484 -0.76843,1.804024 -0.23386,0.53454 0.73479,0.367853 1.20251,-0.600998 0.46772,-0.968849 -0.0772,-2.542387 0.15038,-2.656168 0.30068,-0.150321 0.83496,-0.167236 1.002,-0.701765 -0.0387,-0.533171 -0.66935,-0.189273 -1.35289,-0.718305 -0.35079,-0.46772 -0.0331,-0.500957 0.33435,-0.634585 0.3675,-0.133641 0.33411,-0.13344 0.10025,-0.534334 -0.0585,-0.100229 -0.15277,-0.1441 -0.27492,-0.151929 z m -3.15536,0.988568 c 0.0313,0.0061 0.0663,0.02143 0.10594,0.04858 0.31738,0.217159 0.8015,0.250629 0.8015,0.250629 l 0.0171,0.0832 c 0,0 0.0165,0.167367 0.0165,0.584976 0,0.417621 -0.33396,0.384336 -0.83509,0.451136 -0.50113,0.0668 -0.985624,0.26676 -0.918807,0.04961 0.06682,-0.217159 0.08378,-1.002034 0.334347,-1.052133 0.21925,-0.04385 0.25928,-0.458475 0.47852,-0.415996 z m 1.79782,0.429948 c 0.0496,7.94e-4 0.10781,0.0026 0.17881,0.0026 0.28397,0 0.36778,0.05037 0.38447,0.334346 0.0167,0.28397 0.0999,0.333852 -0.4346,0.434084 -0.53454,0.100219 -0.43408,-0.651125 -0.43408,-0.651125 0.0877,-0.112746 0.15663,-0.122237 0.3054,-0.11989 z m -2.466507,1.736848 c 0.0322,-0.0019 0.06277,-0.0011 0.08992,0.0031 0.217157,0.03341 -0.20074,0.601512 -0.4346,0.601512 -0.233862,0 -0.200504,-0.451133 -0.200504,-0.451133 0,0 0.319776,-0.140687 0.545188,-0.15348 z"
       id="path898"
       inkscape:connector-curvature="0" />
    <path
       style="fill:#ffffff;fill-opacity:1;stroke:none;stroke-width:0.35277778;stroke-linecap:butt;stroke-linejoin:miter;stroke-miterlimit:4;stroke-dasharray:none;stroke-opacity:1"
       d="m 96.7223,-26.2305 c 0,0 -0.75595,-0.49609 -1.2048,-0.0945 -0.44885,0.40161 0.51972,0.87407 0.51972,0.87407 l -0.89769,0.0236 c 0,0 -0.42523,-0.68508 -0.87407,0.0472 -0.44885,0.73233 -1.22843,1.65364 -0.54335,1.86626 0.68509,0.21261 0.82683,-0.28349 1.11031,-0.66146 0.28348,-0.37798 0.66146,-0.37798 0.66146,-0.37798 0,0 -0.0472,0.42522 -0.33073,0.63784 -0.28349,0.21261 -0.44885,0.7087 0.0472,0.54334 0.4961,-0.16537 0.77958,0.0945 0.42523,0.3071 -0.35435,0.21261 -2.07887,0.75595 -2.07887,0.75595 0,0 0.37798,0.68509 0.89769,0.33073 0.51972,-0.35435 1.27567,-0.59058 1.27567,-0.59058 0,0 -0.35435,1.20479 -1.46465,1.39378 -1.11031,0.18899 -2.8112,0.73233 -1.55916,0.99219 1.25205,0.25986 1.72452,-0.16536 2.50409,-0.82682 0.77958,-0.66146 0.92132,-1.74814 1.08669,-1.74814 0.16536,0 -0.25986,2.33873 0.21261,2.38597 0.47247,0.0472 3.09468,0.4016 3.63802,0.16537 0.54334,-0.23624 0.49609,-1.03944 -0.14174,-2.12612 -0.63784,-1.08668 -1.01581,-1.27567 -1.01581,-1.27567 0,0 0.63783,1.79539 0.33073,2.19699 -0.30711,0.4016 -2.03163,0.4016 -2.24424,0.0472 -0.21261,-0.35435 -0.0945,-1.27567 0.4016,-1.48828 0.4961,-0.21261 0.25986,-0.37797 -0.23623,-0.42522 -0.4961,-0.0472 -1.22843,-0.11812 -1.22843,-0.3071 0,-0.18899 0.0945,-0.92132 0.0945,-0.92132 0,0 0,0.8032 0.51972,0.8032 0.51971,0 1.25204,-0.18899 1.06305,-0.47247 -0.18898,-0.28349 -0.42522,-0.0945 -0.75595,-0.16537 -0.33073,-0.0709 -0.44885,-0.54334 -0.44885,-0.54334 0,0 1.01582,-0.35435 1.18118,-0.28348 0.16537,0.0709 -0.25986,0.54334 -0.25986,0.54334 0,0 1.91351,0.11812 1.37017,-0.59059 -0.54334,-0.7087 -0.54334,-0.75595 -1.06306,-0.7087 -0.51972,0.0472 -0.94494,0.23623 -0.94494,0.23623 0,0 0.0236,-0.42522 -0.0473,-0.54334 z"
       id="path909"
       inkscape:connector-curvature="0" />
    <path
       style="fill:#ffffff;fill-opacity:1;stroke:none;stroke-width:0.35277778;stroke-linecap:butt;stroke-linejoin:round;stroke-miterlimit:4;stroke-dasharray:none;stroke-opacity:1"
       d="m 107.09428,-26.171701 c -0.25436,-0.01421 -0.50794,0.275304 -0.35864,0.493508 0.21716,0.317381 0.0669,0.501097 -0.36742,0.517798 -0.43432,0.01669 -0.48421,0.133387 -0.48421,0.383955 0,0.250571 -0.55138,0.685231 -0.55138,0.685231 l -0.26717,-0.451135 c 0,0 0.3506,-0.651767 0.58446,-1.102776 0.23386,-0.451019 -1.15238,-0.183451 -1.15238,-0.183451 l -0.93535,0.133326 c 0.0334,0.200459 -2.6e-4,0.885428 0.0832,3.023587 0.0835,2.138151 0.26744,1.820669 0.65164,1.60352 0.28475,-0.202951 -0.40548,-1.986703 0.55139,-2.254644 0.23487,-0.06577 0.32066,-0.185147 0.3483,-0.276468 0.0479,0.122433 0.23978,0.12247 0.72088,-0.358635 0.56795,-0.567939 0.21699,-0.668057 1.30277,-0.885217 1.08578,-0.217148 1.18605,-0.100176 0.81855,0.200504 -0.36749,0.300662 -0.68523,0.23358 -0.68523,0.23358 0,0 0.16718,0.267708 -0.16691,0.317809 -0.33409,0.05011 -0.83523,0.05005 -0.76843,0.417545 0.0668,0.367469 0.7183,0.283704 0.7183,0.283704 0,0 -0.7351,0.267542 -1.68723,0.384472 -0.95215,0.11693 -0.30064,0.634751 0.15037,0.618051 0.45102,-0.0167 0.88574,-0.183968 0.88574,-0.183968 0,0 -0.86873,0.88519 -1.73737,1.453142 -0.86861,0.567949 -0.71865,0.651497 -0.1173,0.768427 0.60136,0.11693 1.65407,-1.069084 1.97146,-1.336352 0.3174,-0.267261 0.401,-0.98547 0.401,-0.98547 0,0 0.20032,0.200723 0.16692,0.384474 -0.0334,0.183748 -0.33397,0.968568 -0.26717,1.569929 0.0668,0.60135 1.85388,0.484372 2.80603,0.467672 0.95214,-0.01669 1.08608,-0.266946 1.10278,-0.751377 0.0167,-0.484418 -0.96894,-1.821077 -0.96894,-1.821077 0,0 -0.10011,0.584936 -0.16691,1.102776 -0.0668,0.517829 -0.58511,0.734864 -1.08624,0.784965 -0.50113,0.05011 -1.06869,0.100158 -1.11879,-0.250631 -0.0501,-0.350801 0.15044,-0.75143 0.401,-0.951879 0.25057,-0.200461 -0.43445,-0.434295 -0.50126,-0.567925 -0.0668,-0.133631 0.25022,-0.31781 0.65113,-0.31781 0.4009,0 0.9689,-0.01643 0.91881,-0.283704 -0.0501,-0.267248 -0.16677,-0.166939 -0.90176,-0.217041 -0.73499,-0.05012 -0.43452,-0.133718 -0.13384,-0.300757 0.30068,-0.16705 -0.0165,-0.367419 -0.0165,-0.367419 l 0.73484,-0.350882 c 0,0 0.70155,-0.350999 0.56792,-0.802019 -0.13363,-0.451019 -1.4366,0.03359 -1.4366,0.03359 0,0 -0.10031,-0.08351 -0.35088,-0.61805 -0.0783,-0.167043 -0.19393,-0.236414 -0.30954,-0.242877 z m -2.32131,1.0635 c 0.0525,0.007 0.0793,0.03554 0.0584,0.09818 -0.0835,0.250571 -0.28351,0.350796 -0.19999,0.668177 0.0835,0.317391 -0.23428,0.834874 -0.26769,0.651123 -0.0334,-0.18374 -0.13332,-1.269174 -0.13332,-1.269174 0,0 0.38521,-0.169458 0.5426,-0.14831 z"
       id="path911"
       inkscape:connector-curvature="0" />
    <path
       style="fill:#ffffff;fill-opacity:1;stroke:#ffffff;stroke-width:1.05833328;stroke-linecap:round;stroke-linejoin:round;stroke-miterlimit:4;stroke-dasharray:none;stroke-opacity:1"
       d="m 57.555991,-18.203083 54.104909,0.345552"
       id="path940"
       inkscape:connector-curvature="0"
       sodipodi:nodetypes="cc" />
  </g>
</svg>
