<?xml version="1.0" encoding="UTF-8" standalone="no"?>
<!-- Generator: Adobe Illustrator 19.0.0, SVG Export Plug-In . SVG Version: 6.00 Build 0)  -->

<svg
   xmlns:dc="http://purl.org/dc/elements/1.1/"
   xmlns:cc="http://creativecommons.org/ns#"
   xmlns:rdf="http://www.w3.org/1999/02/22-rdf-syntax-ns#"
   xmlns:svg="http://www.w3.org/2000/svg"
   xmlns="http://www.w3.org/2000/svg"
   xmlns:sodipodi="http://sodipodi.sourceforge.net/DTD/sodipodi-0.dtd"
   xmlns:inkscape="http://www.inkscape.org/namespaces/inkscape"
   version="1.1"
   id="Capa_1"
   x="0px"
   y="0px"
   viewBox="0 0 512 512"
   style="enable-background:new 0 0 512 512;"
   xml:space="preserve"
   sodipodi:docname="calendar.svg"
   inkscape:version="0.92.4 (5da689c313, 2019-01-14)"><metadata
   id="metadata971"><rdf:RDF><cc:Work
       rdf:about=""><dc:format>image/svg+xml</dc:format><dc:type
         rdf:resource="http://purl.org/dc/dcmitype/StillImage" /></cc:Work></rdf:RDF></metadata><defs
   id="defs969" /><sodipodi:namedview
   pagecolor="#ffffff"
   bordercolor="#666666"
   borderopacity="1"
   objecttolerance="10"
   gridtolerance="10"
   guidetolerance="10"
   inkscape:pageopacity="0"
   inkscape:pageshadow="2"
   inkscape:window-width="1920"
   inkscape:window-height="1017"
   id="namedview967"
   showgrid="false"
   inkscape:zoom="1.1683835"
   inkscape:cx="183.55278"
   inkscape:cy="249.48226"
   inkscape:window-x="-8"
   inkscape:window-y="-8"
   inkscape:window-maximized="1"
   inkscape:current-layer="Capa_1" />
<g
   id="g898"
   style="fill:#ffffff;fill-opacity:1">
	<g
   id="g896"
   style="fill:#ffffff;fill-opacity:1">
		<path
   d="M447.37,52.913h-33.586v-8.219c0-8.284-6.716-15-15-15s-15,6.716-15,15v8.219h-41.392v-8.219c0-8.284-6.716-15-15-15    s-15,6.716-15,15v8.219H271v-8.219c0-8.284-6.716-15-15-15s-15,6.716-15,15v8.219h-41.392v-8.219c0-8.284-6.716-15-15-15    s-15,6.716-15,15v8.219h-41.392v-8.219c0-8.284-6.716-15-15-15s-15,6.716-15,15v8.219H64.63C28.993,52.913,0,81.906,0,117.542    v300.135c0,35.637,28.993,64.629,64.63,64.629h382.74c35.637,0,64.63-28.993,64.63-64.629V117.542    C512,81.906,483.007,52.913,447.37,52.913z M482,417.677c0,19.095-15.535,34.629-34.63,34.629H64.63    c-19.095,0-34.63-15.535-34.63-34.629V172.348h452V417.677z M482,142.348H30v-24.806c0-19.094,15.535-34.629,34.63-34.629h33.586    v5.799c0,8.284,6.716,15,15,15s15-6.716,15-15v-5.799h41.392v5.799c0,8.284,6.716,15,15,15s15-6.716,15-15v-5.799H241v5.799    c0,8.284,6.716,15,15,15s15-6.716,15-15v-5.799h41.392v5.799c0,8.284,6.716,15,15,15s15-6.716,15-15v-5.799h41.392v5.799    c0,8.284,6.716,15,15,15s15-6.716,15-15v-5.799h33.586c19.095,0,34.63,15.535,34.63,34.629V142.348z"
   id="path894"
   style="fill:#ffffff;fill-opacity:1" />
	</g>
</g>
<g
   id="g904"
   style="fill:#ffffff;fill-opacity:1">
	<g
   id="g902"
   style="fill:#ffffff;fill-opacity:1">
		<path
   d="M167.215,204.329h-59.189c-8.284,0-15,6.716-15,15v61.239c0,8.284,6.716,15,15,15h59.189c8.284,0,15-6.716,15-15v-61.239    C182.215,211.045,175.5,204.329,167.215,204.329z M152.215,265.568h-29.189v-31.239h29.189V265.568z"
   id="path900"
   style="fill:#ffffff;fill-opacity:1" />
	</g>
</g>
<g
   id="g910"
   style="fill:#ffffff;fill-opacity:1">
	<g
   id="g908"
   style="fill:#ffffff;fill-opacity:1">
		<path
   d="M285.595,204.329h-59.189c-8.284,0-15,6.716-15,15v61.239c0,8.284,6.716,15,15,15h59.189c8.284,0,15-6.716,15-15v-61.239    C300.595,211.045,293.879,204.329,285.595,204.329z M270.595,265.568h-29.189v-31.239h29.189V265.568z"
   id="path906"
   style="fill:#ffffff;fill-opacity:1" />
	</g>
</g>
<g
   id="g916"
   style="fill:#ffffff;fill-opacity:1">
	<g
   id="g914"
   style="fill:#ffffff;fill-opacity:1">
		<path
   d="M403.974,204.329h-59.189c-8.284,0-15,6.716-15,15v61.239c0,8.284,6.716,15,15,15h59.189c8.284,0,15-6.716,15-15v-61.239    C418.974,211.045,412.258,204.329,403.974,204.329z M388.974,265.568h-29.189v-31.239h29.189V265.568z"
   id="path912"
   style="fill:#ffffff;fill-opacity:1" />
	</g>
</g>
<g
   id="g922"
   style="fill:#ffffff;fill-opacity:1">
	<g
   id="g920"
   style="fill:#ffffff;fill-opacity:1">
		<path
   d="M167.215,320.658h-59.189c-8.284,0-15,6.716-15,15v61.239c0,8.284,6.716,15,15,15h59.189c8.284,0,15-6.716,15-15v-61.239    C182.215,327.374,175.5,320.658,167.215,320.658z M152.215,381.898h-29.189v-31.239h29.189V381.898z"
   id="path918"
   style="fill:#ffffff;fill-opacity:1" />
	</g>
</g>
<g
   id="g928"
   style="fill:#ffffff;fill-opacity:1">
	<g
   id="g926"
   style="fill:#ffffff;fill-opacity:1">
		<path
   d="M285.595,320.658h-59.189c-8.284,0-15,6.716-15,15v61.239c0,8.284,6.716,15,15,15h59.189c8.284,0,15-6.716,15-15v-61.239    C300.595,327.374,293.879,320.658,285.595,320.658z M270.595,381.898h-29.189v-31.239h29.189V381.898z"
   id="path924"
   style="fill:#ffffff;fill-opacity:1" />
	</g>
</g>
<g
   id="g934"
   style="fill:#ffffff;fill-opacity:1">
	<g
   id="g932"
   style="fill:#ffffff;fill-opacity:1">
		<path
   d="M403.974,320.658h-59.189c-8.284,0-15,6.716-15,15v61.239c0,8.284,6.716,15,15,15h59.189c8.284,0,15-6.716,15-15v-61.239    C418.974,327.374,412.258,320.658,403.974,320.658z M388.974,381.898h-29.189v-31.239h29.189V381.898z"
   id="path930"
   style="fill:#ffffff;fill-opacity:1" />
	</g>
</g>
<g
   id="g936"
   style="fill:#ffffff;fill-opacity:1">
</g>
<g
   id="g938"
   style="fill:#ffffff;fill-opacity:1">
</g>
<g
   id="g940"
   style="fill:#ffffff;fill-opacity:1">
</g>
<g
   id="g942"
   style="fill:#ffffff;fill-opacity:1">
</g>
<g
   id="g944"
   style="fill:#ffffff;fill-opacity:1">
</g>
<g
   id="g946"
   style="fill:#ffffff;fill-opacity:1">
</g>
<g
   id="g948"
   style="fill:#ffffff;fill-opacity:1">
</g>
<g
   id="g950"
   style="fill:#ffffff;fill-opacity:1">
</g>
<g
   id="g952"
   style="fill:#ffffff;fill-opacity:1">
</g>
<g
   id="g954"
   style="fill:#ffffff;fill-opacity:1">
</g>
<g
   id="g956"
   style="fill:#ffffff;fill-opacity:1">
</g>
<g
   id="g958"
   style="fill:#ffffff;fill-opacity:1">
</g>
<g
   id="g960"
   style="fill:#ffffff;fill-opacity:1">
</g>
<g
   id="g962"
   style="fill:#ffffff;fill-opacity:1">
</g>
<g
   id="g964"
   style="fill:#ffffff;fill-opacity:1">
</g>
</svg>