<?xml version="1.0" encoding="UTF-8" standalone="no"?>
<!-- Created with Inkscape (http://www.inkscape.org/) -->

<svg
   xmlns:dc="http://purl.org/dc/elements/1.1/"
   xmlns:cc="http://creativecommons.org/ns#"
   xmlns:rdf="http://www.w3.org/1999/02/22-rdf-syntax-ns#"
   xmlns:svg="http://www.w3.org/2000/svg"
   xmlns="http://www.w3.org/2000/svg"
   xmlns:sodipodi="http://sodipodi.sourceforge.net/DTD/sodipodi-0.dtd"
   xmlns:inkscape="http://www.inkscape.org/namespaces/inkscape"
   width="141.02953mm"
   height="141.02953mm"
   viewBox="0 0 141.02953 141.02953"
   version="1.1"
   id="svg8"
   inkscape:version="0.92.4 (5da689c313, 2019-01-14)"
   sodipodi:docname="CRC.svg">
  <defs
     id="defs2">
    <style
       id="style815">
      .cls-1 {
        fill: #5f5d5c;
      }

      .cls-2 {
        fill: #fff;
      }

      .cls-3 {
        fill: #efb9cc;
      }

      .cls-4 {
        fill: #e9d3b3;
      }

      .cls-5 {
        fill: #93c494;
      }

      .cls-6 {
        fill: #c1e0dd;
      }

      .cls-7 {
        fill: #f0b8c3;
      }

      .cls-8 {
        fill: #d3bed9;
      }

      .cls-9 {
        fill: #c5dfbb;
      }

      .cls-10 {
        fill: #edea8f;
      }

      .cls-11 {
        fill: #231815;
      }
    </style>
  </defs>
  <sodipodi:namedview
     id="base"
     pagecolor="#ffffff"
     bordercolor="#666666"
     borderopacity="1.0"
     inkscape:pageopacity="0.0"
     inkscape:pageshadow="2"
     inkscape:zoom="0.98994949"
     inkscape:cx="162.92413"
     inkscape:cy="202.97286"
     inkscape:document-units="mm"
     inkscape:current-layer="g861"
     showgrid="false"
     inkscape:snap-grids="false"
     showguides="true"
     inkscape:snap-page="false"
     fit-margin-top="0"
     fit-margin-left="0"
     fit-margin-right="0"
     fit-margin-bottom="0"
     inkscape:window-width="1920"
     inkscape:window-height="1017"
     inkscape:window-x="-8"
     inkscape:window-y="-8"
     inkscape:window-maximized="1">
    <inkscape:grid
       type="xygrid"
       id="grid896"
       originx="-37.156886"
       originy="-147.13805" />
  </sodipodi:namedview>
  <metadata
     id="metadata5">
    <rdf:RDF>
      <cc:Work
         rdf:about="">
        <dc:format>image/svg+xml</dc:format>
        <dc:type
           rdf:resource="http://purl.org/dc/dcmitype/StillImage" />
        <dc:title></dc:title>
      </cc:Work>
    </rdf:RDF>
  </metadata>
  <g
     inkscape:label="圖層 1"
     inkscape:groupmode="layer"
     id="layer1"
     transform="translate(-37.156884,-8.8324344)">
    <g
       id="g861"
       transform="matrix(0.71104935,0,0,0.71104935,35.696547,35.745594)">
      <g
         id="g847"
         transform="translate(2.0537774,-37.849918)">
        <circle
           id="circle821"
           r="99.169998"
           cy="99.169998"
           cx="99.169998"
           class="cls-1"
           style="fill:#5f5d5c" />
        <g
           id="g829">
          <path
             id="path823"
             transform="translate(-70.91,-51.35)"
             d="m 139.92,167.93 a 11,11 0 0 1 -8.45,-3.64 q -3.32,-3.64 -3.32,-10 a 17.18,17.18 0 0 1 0.93,-5.78 12.57,12.57 0 0 1 2.55,-4.37 11,11 0 0 1 3.79,-2.71 11.65,11.65 0 0 1 4.68,-1 9.87,9.87 0 0 1 6.25,2.18 1.5,1.5 0 0 1 0.6,1.26 1.79,1.79 0 0 1 -0.46,1.23 1.57,1.57 0 0 1 -1.16,0.57 h -0.14 a 2.08,2.08 0 0 1 -1.16,-0.35 6.42,6.42 0 0 0 -3.86,-1.27 6.79,6.79 0 0 0 -5.59,2.72 11.54,11.54 0 0 0 -2.14,7.33 12.05,12.05 0 0 0 2.05,7.43 6.61,6.61 0 0 0 5.57,2.73 7.1,7.1 0 0 0 4.61,-1.66 1.94,1.94 0 0 1 1.16,-0.38 h 0.1 a 1.59,1.59 0 0 1 1.13,0.53 2,2 0 0 1 0.45,1.26 1.72,1.72 0 0 1 -0.56,1.3 10.37,10.37 0 0 1 -7.03,2.62 z"
             class="cls-2"
             inkscape:connector-curvature="0"
             style="fill:#ffffff" />
          <path
             id="path825"
             transform="translate(-70.91,-51.35)"
             d="m 181.78,165.68 a 1,1 0 0 1 0.18,0.58 1.22,1.22 0 0 1 -0.18,0.61 1.13,1.13 0 0 1 -1.05,0.6 h -0.56 a 3.6,3.6 0 0 1 -3.1,-1.79 L 172.22,157 a 0.46,0.46 0 0 0 -0.42,-0.21 h -3.72 c -0.19,0 -0.28,0.08 -0.28,0.24 v 8.37 a 2.08,2.08 0 0 1 -2.08,2.07 v 0 a 2,2 0 0 1 -1.46,-0.62 2,2 0 0 1 -0.62,-1.45 v -22.35 a 2.12,2.12 0 0 1 2.08,-2.08 h 6.6 q 9.57,0 9.56,7.66 a 7.83,7.83 0 0 1 -1.39,4.8 7.74,7.74 0 0 1 -3.88,2.72 c -0.16,0.07 -0.2,0.18 -0.1,0.32 z m -13.7,-21.33 c -0.19,0 -0.28,0.08 -0.28,0.24 v 8.58 a 0.25,0.25 0 0 0 0.28,0.28 h 3.72 q 5.94,0 5.94,-4.82 a 3.67,3.67 0 0 0 -1.48,-3.3 8.08,8.08 0 0 0 -4.46,-1 z"
             class="cls-2"
             inkscape:connector-curvature="0"
             style="fill:#ffffff" />
          <path
             id="path827"
             transform="translate(-70.91,-51.35)"
             d="m 208.29,167.93 a 11,11 0 0 1 -8.46,-3.64 q -3.32,-3.64 -3.32,-10 a 17.18,17.18 0 0 1 0.93,-5.78 12.57,12.57 0 0 1 2.55,-4.37 11,11 0 0 1 3.8,-2.71 11.61,11.61 0 0 1 4.67,-1 9.9,9.9 0 0 1 6.26,2.18 1.52,1.52 0 0 1 0.59,1.26 1.83,1.83 0 0 1 -0.45,1.23 1.59,1.59 0 0 1 -1.16,0.57 h -0.14 a 2.06,2.06 0 0 1 -1.16,-0.35 6.45,6.45 0 0 0 -3.87,-1.27 6.79,6.79 0 0 0 -5.59,2.72 11.54,11.54 0 0 0 -2.14,7.33 12.05,12.05 0 0 0 2.06,7.43 6.6,6.6 0 0 0 5.57,2.73 7.07,7.07 0 0 0 4.6,-1.66 2,2 0 0 1 1.16,-0.38 h 0.1 a 1.59,1.59 0 0 1 1.13,0.53 2,2 0 0 1 0.46,1.26 1.69,1.69 0 0 1 -0.57,1.3 10.34,10.34 0 0 1 -7.02,2.62 z"
             class="cls-2"
             inkscape:connector-curvature="0"
             style="fill:#ffffff" />
        </g>
        <path
           id="path831"
           transform="translate(-70.91,-51.35)"
           d="m 165.82,72.47 c 0,-5.13 3.12,-8.18 7.26,-8.18 a 6.29,6.29 0 0 1 4.5,2 L 176,68 a 4,4 0 0 0 -2.94,-1.26 c -2.6,0 -4.39,2.15 -4.39,5.66 0,3.51 1.79,5.75 4.47,5.75 a 4.16,4.16 0 0 0 3.16,-1.55 l 1.56,1.69 a 6.29,6.29 0 0 1 -5,2.29 c -3.86,-0.02 -7.04,-2.91 -7.04,-8.11 z"
           class="cls-3"
           inkscape:connector-curvature="0"
           style="fill:#efb9cc" />
        <path
           id="path833"
           transform="translate(-70.91,-51.35)"
           d="m 224.3,97.9 h -6.11 v -3.6 h 6.11 v -6.38 h 3.7 v 6.38 h 6.11 v 3.6 H 228 v 6.38 h -3.7 z"
           class="cls-4"
           inkscape:connector-curvature="0"
           style="fill:#e9d3b3" />
        <path
           id="path835"
           transform="translate(-70.91,-51.35)"
           d="m 220,209.33 7.79,-4.87 v -0.12 L 220,199.48 v -3.91 l 11.34,7.34 v 3 L 220,213.24 Z"
           class="cls-5"
           inkscape:connector-curvature="0"
           style="fill:#93c494" />
        <path
           id="path837"
           transform="translate(-70.91,-51.35)"
           d="m 105.46,209.94 5,-4.62 1.36,1.26 -4.32,5.31 z m 0.2,-10.11 c 0,-2.77 1.7,-4.44 4,-4.44 2.3,0 4,1.67 4,4.44 0,2.77 -1.7,4.5 -4,4.5 -2.3,0 -4,-1.75 -4,-4.5 z m 5.22,0 c 0,-1.83 -0.6,-2.34 -1.27,-2.34 -0.67,0 -1.26,0.51 -1.26,2.34 0,1.83 0.6,2.4 1.26,2.4 0.66,0 1.27,-0.6 1.27,-2.4 z m 1.54,8.62 c 0,-2.77 1.7,-4.44 4,-4.44 2.3,0 3.95,1.67 3.95,4.44 0,2.77 -1.7,4.5 -3.95,4.5 -2.25,0 -4,-1.75 -4,-4.5 z m 1.81,-7.13 4.32,-5.32 2,1.95 -5,4.63 z m 3.4,7.13 c 0,-1.83 -0.59,-2.34 -1.26,-2.34 -0.67,0 -1.26,0.51 -1.26,2.34 0,1.83 0.59,2.4 1.26,2.4 0.67,0 1.26,-0.59 1.26,-2.4 z"
           class="cls-6"
           inkscape:connector-curvature="0"
           style="fill:#c1e0dd" />
        <path
           id="path839"
           transform="translate(-70.91,-51.35)"
           d="m 108,101.3 3.38,-5.42 -5.38,-2.35 0.81,-2.49 5.61,1.5 0.43,-6.17 h 2.68 l 0.43,6.17 5.61,-1.5 0.8,2.49 -5.31,2.35 3.38,5.42 -2.24,1.54 -4,-4.93 -4,4.93 z"
           class="cls-7"
           inkscape:connector-curvature="0"
           style="fill:#f0b8c3" />
        <path
           id="path841"
           transform="translate(-70.91,-51.35)"
           d="m 86.19,158.33 c 0,-5.2 7.34,-5.86 7.34,-9.43 0,-0.92 -0.36,-1.63 -1.35,-1.63 -0.99,0 -1.53,0.91 -1.53,2.23 0,3 3.51,7.05 6.8,9.35 a 10.07,10.07 0 0 0 3.38,1.87 l -0.78,2.52 a 13,13 0 0 1 -4.45,-2.39 c -3.94,-2.93 -7.54,-7.92 -7.54,-11.32 a 4.08,4.08 0 0 1 4.07,-4.35 3.48,3.48 0 0 1 3.8,3.7 c 0,4.33 -6.8,5.62 -6.8,9.27 a 2.67,2.67 0 0 0 2.85,2.7 4.66,4.66 0 0 0 3.3,-1.9 13.22,13.22 0 0 0 2.63,-5.66 h 2.82 a 19.79,19.79 0 0 1 -3.32,7.08 7.41,7.41 0 0 1 -5.82,2.87 c -3.36,0 -5.4,-2.16 -5.4,-4.91 z"
           class="cls-8"
           inkscape:connector-curvature="0"
           style="fill:#d3bed9" />
        <path
           id="path843"
           transform="translate(-70.91,-51.35)"
           d="m 163.87,223.13 h 15.44 V 226 h -15.44 z m 0,7.74 h 15.44 v 2.89 h -15.44 z"
           class="cls-9"
           inkscape:connector-curvature="0"
           style="fill:#c5dfbb" />
        <path
           id="path845"
           transform="translate(-70.91,-51.35)"
           d="m 244.24,155.83 h 11.82 v 2.51 h -11.82 z m 0.53,-5.44 h 11.82 v 2.51 h -11.82 z m 3,-4.39 H 250 l -2.09,17.31 h -2.28 z m 5,0 H 255 l -2.08,17.31 h -2.29 z"
           class="cls-10"
           inkscape:connector-curvature="0"
           style="fill:#edea8f" />
      </g>
    </g>
  </g>
</svg>
