<?xml version="1.0" encoding="UTF-8" standalone="no"?>
<!-- Created with Inkscape (http://www.inkscape.org/) -->

<svg
   xmlns:dc="http://purl.org/dc/elements/1.1/"
   xmlns:cc="http://creativecommons.org/ns#"
   xmlns:rdf="http://www.w3.org/1999/02/22-rdf-syntax-ns#"
   xmlns:svg="http://www.w3.org/2000/svg"
   xmlns="http://www.w3.org/2000/svg"
   xmlns:sodipodi="http://sodipodi.sourceforge.net/DTD/sodipodi-0.dtd"
   xmlns:inkscape="http://www.inkscape.org/namespaces/inkscape"
   width="35mm"
   height="35mm"
   viewBox="0 0 35.000001 35"
   version="1.1"
   id="svg868"
   inkscape:version="0.92.4 (5da689c313, 2019-01-14)"
   sodipodi:docname="crcoj.svg">
  <defs
     id="defs862" />
  <sodipodi:namedview
     id="base"
     pagecolor="#ffffff"
     bordercolor="#666666"
     borderopacity="1.0"
     inkscape:pageopacity="0.0"
     inkscape:pageshadow="2"
     inkscape:zoom="1.979899"
     inkscape:cx="22.746067"
     inkscape:cy="15.373325"
     inkscape:document-units="mm"
     inkscape:current-layer="layer1"
     showgrid="false"
     fit-margin-top="0"
     fit-margin-left="0"
     fit-margin-right="0"
     fit-margin-bottom="0"
     inkscape:window-width="1920"
     inkscape:window-height="1017"
     inkscape:window-x="-8"
     inkscape:window-y="-8"
     inkscape:window-maximized="1" />
  <metadata
     id="metadata865">
    <rdf:RDF>
      <cc:Work
         rdf:about="">
        <dc:format>image/svg+xml</dc:format>
        <dc:type
           rdf:resource="http://purl.org/dc/dcmitype/StillImage" />
        <dc:title></dc:title>
      </cc:Work>
    </rdf:RDF>
  </metadata>
  <g
     inkscape:label="圖層 1"
     inkscape:groupmode="layer"
     id="layer1"
     transform="translate(-53.302049,-87.71766)">
    <g
       aria-label="CRC
"
       style="font-style:normal;font-variant:normal;font-weight:900;font-stretch:normal;font-size:17.63888931px;line-height:1.25;font-family:'思源黑體 TW';-inkscape-font-specification:'思源黑體 TW, Heavy';font-variant-ligatures:normal;font-variant-caps:normal;font-variant-numeric:normal;font-feature-settings:normal;text-align:start;letter-spacing:0px;word-spacing:0px;writing-mode:lr-tb;text-anchor:start;fill:#ffffff;fill-opacity:1;stroke:none;stroke-width:0.26458332"
       id="text1415"
       transform="translate(0.13363476,-2.0045215)">
      <path
         d="m 59.458021,105.88196 c 1.710973,0 3.175,-0.65264 4.28625,-1.94028 l -1.658055,-1.97555 c -0.617361,0.67028 -1.446389,1.19944 -2.504723,1.19944 -1.852083,0 -3.051527,-1.51694 -3.051527,-4.127497 0,-2.557639 1.393472,-4.074584 3.086805,-4.074584 0.934861,0 1.622778,0.423334 2.293056,1.023056 l 1.640417,-2.010833 c -0.899584,-0.917223 -2.275417,-1.710973 -3.986389,-1.710973 -3.33375,0 -6.261806,2.504723 -6.261806,6.879167 0,4.445004 2.822222,6.738054 6.155972,6.738054 z"
         style="font-style:normal;font-variant:normal;font-weight:900;font-stretch:normal;font-size:17.63888931px;font-family:'思源黑體 TW';-inkscape-font-specification:'思源黑體 TW, Heavy';font-variant-ligatures:normal;font-variant-caps:normal;font-variant-numeric:normal;font-feature-settings:normal;text-align:start;writing-mode:lr-tb;text-anchor:start;stroke-width:0.26458332;fill:#ffffff;fill-opacity:1"
         id="path1440"
         inkscape:connector-curvature="0" />
      <path
         d="m 65.683998,105.63502 h 3.157361 v -4.62139 h 1.516944 l 2.416528,4.62139 h 3.527778 l -2.928056,-5.20347 c 1.358195,-0.635005 2.257778,-1.869727 2.257778,-3.792366 0,-3.175 -2.328333,-4.145139 -5.132917,-4.145139 h -4.815416 z m 3.157361,-7.108475 v -3.527778 h 1.411111 c 1.499306,0 2.310695,0.405695 2.310695,1.640417 0,1.234722 -0.811389,1.887361 -2.310695,1.887361 z"
         style="font-style:normal;font-variant:normal;font-weight:900;font-stretch:normal;font-size:17.63888931px;font-family:'思源黑體 TW';-inkscape-font-specification:'思源黑體 TW, Heavy';font-variant-ligatures:normal;font-variant-caps:normal;font-variant-numeric:normal;font-feature-settings:normal;text-align:start;writing-mode:lr-tb;text-anchor:start;stroke-width:0.26458332;fill:#ffffff;fill-opacity:1"
         id="path1442"
         inkscape:connector-curvature="0" />
      <path
         d="m 83.745945,105.88196 c 1.710972,0 3.175,-0.65264 4.28625,-1.94028 l -1.658055,-1.97555 c -0.617362,0.67028 -1.446389,1.19944 -2.504723,1.19944 -1.852083,0 -3.051528,-1.51694 -3.051528,-4.127497 0,-2.557639 1.393473,-4.074584 3.086806,-4.074584 0.934861,0 1.622778,0.423334 2.293056,1.023056 l 1.640416,-2.010833 c -0.899583,-0.917223 -2.275416,-1.710973 -3.986389,-1.710973 -3.33375,0 -6.261805,2.504723 -6.261805,6.879167 0,4.445004 2.822222,6.738054 6.155972,6.738054 z"
         style="font-style:normal;font-variant:normal;font-weight:900;font-stretch:normal;font-size:17.63888931px;font-family:'思源黑體 TW';-inkscape-font-specification:'思源黑體 TW, Heavy';font-variant-ligatures:normal;font-variant-caps:normal;font-variant-numeric:normal;font-feature-settings:normal;text-align:start;writing-mode:lr-tb;text-anchor:start;stroke-width:0.26458332;fill:#ffffff;fill-opacity:1"
         id="path1444"
         inkscape:connector-curvature="0" />
    </g>
    <g
       aria-label="OJ
"
       style="font-style:normal;font-variant:normal;font-weight:900;font-stretch:normal;font-size:17.63888931px;line-height:1.25;font-family:'思源黑體 TW';-inkscape-font-specification:'思源黑體 TW, Heavy';font-variant-ligatures:normal;font-variant-caps:normal;font-variant-numeric:normal;font-feature-settings:normal;text-align:start;letter-spacing:0px;word-spacing:0px;writing-mode:lr-tb;text-anchor:start;fill:#ffffff;fill-opacity:1;stroke:none;stroke-width:0.26458332"
       id="text1415-6"
       transform="translate(0.13363476,-2.0045215)">
      <path
         d="m 66.099694,122.71766 c 3.580694,0 6.014861,-2.57528 6.014861,-6.87917 0,-4.28625 -2.434167,-6.73806 -6.014861,-6.73806 -3.580695,0 -6.014862,2.43417 -6.014862,6.73806 0,4.30389 2.434167,6.87917 6.014862,6.87917 z m 0,-2.71639 c -1.728611,0 -2.786945,-1.62278 -2.786945,-4.16278 0,-2.54 1.058334,-4.03931 2.786945,-4.03931 1.728611,0 2.804583,1.49931 2.804583,4.03931 0,2.54 -1.075972,4.16278 -2.804583,4.16278 z"
         style="font-style:normal;font-variant:normal;font-weight:900;font-stretch:normal;font-size:17.63888931px;font-family:'思源黑體 TW';-inkscape-font-specification:'思源黑體 TW, Heavy';font-variant-ligatures:normal;font-variant-caps:normal;font-variant-numeric:normal;font-feature-settings:normal;text-align:start;writing-mode:lr-tb;text-anchor:start;stroke-width:0.26458332;fill:#ffffff;fill-opacity:1"
         id="path1447"
         inkscape:connector-curvature="0" />
      <path
         d="m 76.483763,122.71766 c 2.945694,0 4.303889,-2.11667 4.303889,-4.69195 v -8.69597 H 77.63029 v 8.44903 c 0,1.71097 -0.546805,2.2225 -1.569861,2.2225 -0.635,0 -1.305278,-0.4057 -1.763889,-1.30528 l -2.134305,1.60514 c 0.934861,1.62278 2.275416,2.41653 4.321528,2.41653 z"
         style="font-style:normal;font-variant:normal;font-weight:900;font-stretch:normal;font-size:17.63888931px;font-family:'思源黑體 TW';-inkscape-font-specification:'思源黑體 TW, Heavy';font-variant-ligatures:normal;font-variant-caps:normal;font-variant-numeric:normal;font-feature-settings:normal;text-align:start;writing-mode:lr-tb;text-anchor:start;stroke-width:0.26458332;fill:#ffffff;fill-opacity:1"
         id="path1449"
         inkscape:connector-curvature="0" />
    </g>
  </g>
</svg>
