<?xml version="1.0" encoding="UTF-8" standalone="no"?>
<svg
   xmlns:dc="http://purl.org/dc/elements/1.1/"
   xmlns:cc="http://creativecommons.org/ns#"
   xmlns:rdf="http://www.w3.org/1999/02/22-rdf-syntax-ns#"
   xmlns:svg="http://www.w3.org/2000/svg"
   xmlns="http://www.w3.org/2000/svg"
   xmlns:sodipodi="http://sodipodi.sourceforge.net/DTD/sodipodi-0.dtd"
   xmlns:inkscape="http://www.inkscape.org/namespaces/inkscape"
   id="Capa_1"
   enable-background="new 0 0 512 512"
   height="512"
   viewBox="0 0 512 512"
   width="512"
   version="1.1"
   sodipodi:docname="document.svg"
   inkscape:version="0.92.4 (5da689c313, 2019-01-14)">
  <metadata
     id="metadata847">
    <rdf:RDF>
      <cc:Work
         rdf:about="">
        <dc:format>image/svg+xml</dc:format>
        <dc:type
           rdf:resource="http://purl.org/dc/dcmitype/StillImage" />
      </cc:Work>
    </rdf:RDF>
  </metadata>
  <defs
     id="defs845" />
  <sodipodi:namedview
     pagecolor="#ffffff"
     bordercolor="#666666"
     borderopacity="1"
     objecttolerance="10"
     gridtolerance="10"
     guidetolerance="10"
     inkscape:pageopacity="0"
     inkscape:pageshadow="2"
     inkscape:window-width="1920"
     inkscape:window-height="1017"
     id="namedview843"
     showgrid="false"
     inkscape:zoom="1.6523438"
     inkscape:cx="256"
     inkscape:cy="256"
     inkscape:window-x="1912"
     inkscape:window-y="-8"
     inkscape:window-maximized="1"
     inkscape:current-layer="Capa_1" />
  <g
     id="g840"
     style="fill:#ffffff;fill-opacity:1">
    <path
       d="m503.22 186.828-25.041-25.041c-11.697-11.698-30.729-11.696-42.427 0l-52.745 52.745v-169.532c0-24.813-20.187-45-45-45h-293c-24.813 0-45 20.187-45 45v422c0 24.813 20.187 45 45 45h293c24.813 0 45-20.187 45-45v-119.033l120.213-118.712c11.697-11.697 11.697-30.73 0-42.427zm-179.399 177.423-45.122 21.058 21.037-45.078 111.975-111.975 24.757 24.756zm29.186 102.749c0 8.271-6.729 15-15 15h-293c-8.271 0-15-6.729-15-15v-422c0-8.271 6.729-15 15-15h293c8.271 0 15 6.729 15 15v199.532c-83.179 83.179-77.747 77.203-79.34 80.616l-39.598 84.854c-2.667 5.717-1.474 12.49 2.986 16.95 4.46 4.461 11.236 5.653 16.95 2.986l84.854-39.599c3.111-1.452 3.623-2.354 14.148-12.748zm104.806-235.067-24.89-24.89 24.043-24.043 25.033 25.049z"
       id="path832"
       style="fill:#ffffff;fill-opacity:1" />
    <path
       d="m80.007 127h224c8.284 0 15-6.716 15-15s-6.716-15-15-15h-224c-8.284 0-15 6.716-15 15s6.716 15 15 15z"
       id="path834"
       style="fill:#ffffff;fill-opacity:1" />
    <path
       d="m80.007 207h176c8.284 0 15-6.716 15-15s-6.716-15-15-15h-176c-8.284 0-15 6.716-15 15s6.716 15 15 15z"
       id="path836"
       style="fill:#ffffff;fill-opacity:1" />
    <path
       d="m208.007 257h-128c-8.284 0-15 6.716-15 15s6.716 15 15 15h128c8.284 0 15-6.716 15-15s-6.716-15-15-15z"
       id="path838"
       style="fill:#ffffff;fill-opacity:1" />
  </g>
</svg>
