<?xml version="1.0" encoding="UTF-8" standalone="no"?>
<!-- Created with Inkscape (http://www.inkscape.org/) -->

<svg
   xmlns:dc="http://purl.org/dc/elements/1.1/"
   xmlns:cc="http://creativecommons.org/ns#"
   xmlns:rdf="http://www.w3.org/1999/02/22-rdf-syntax-ns#"
   xmlns:svg="http://www.w3.org/2000/svg"
   xmlns="http://www.w3.org/2000/svg"
   xmlns:sodipodi="http://sodipodi.sourceforge.net/DTD/sodipodi-0.dtd"
   xmlns:inkscape="http://www.inkscape.org/namespaces/inkscape"
   width="135.46666mm"
   height="135.46666mm"
   viewBox="0 0 135.46666 135.46666"
   version="1.1"
   id="svg8"
   inkscape:version="0.92.4 (5da689c313, 2019-01-14)"
   sodipodi:docname="ig.svg">
  <defs
     id="defs2" />
  <sodipodi:namedview
     id="base"
     pagecolor="#ffffff"
     bordercolor="#666666"
     borderopacity="1.0"
     inkscape:pageopacity="0.0"
     inkscape:pageshadow="2"
     inkscape:zoom="0.35"
     inkscape:cx="295.29357"
     inkscape:cy="255.29357"
     inkscape:document-units="mm"
     inkscape:current-layer="layer1"
     showgrid="false"
     fit-margin-top="0"
     fit-margin-left="0"
     fit-margin-right="0"
     fit-margin-bottom="0"
     inkscape:window-width="1920"
     inkscape:window-height="1017"
     inkscape:window-x="-8"
     inkscape:window-y="-8"
     inkscape:window-maximized="1" />
  <metadata
     id="metadata5">
    <rdf:RDF>
      <cc:Work
         rdf:about="">
        <dc:format>image/svg+xml</dc:format>
        <dc:type
           rdf:resource="http://purl.org/dc/dcmitype/StillImage" />
        <dc:title />
      </cc:Work>
    </rdf:RDF>
  </metadata>
  <g
     inkscape:label="圖層 1"
     inkscape:groupmode="layer"
     id="layer1"
     transform="translate(-27.703577,-80.91309)">
    <g
       id="g4654"
       transform="matrix(0.26458333,0,0,0.26458333,27.703577,80.91309)"
       style="fill:#ffffff;fill-opacity:1">
      <g
         id="g4579"
         style="fill:#ffffff;fill-opacity:1">
        <g
           id="g4577"
           style="fill:#ffffff;fill-opacity:1">
          <path
             id="path4575"
             d="M 363.273,0 H 148.728 C 66.719,0 0,66.719 0,148.728 V 363.272 C 0,445.281 66.719,512 148.728,512 H 363.272 C 445.281,512 512,445.281 512,363.273 V 148.728 C 512,66.719 445.281,0 363.273,0 Z M 472,363.272 C 472,423.225 423.225,472 363.273,472 H 148.728 C 88.775,472 40,423.225 40,363.273 V 148.728 C 40,88.775 88.775,40 148.728,40 H 363.272 C 423.225,40 472,88.775 472,148.728 Z"
             inkscape:connector-curvature="0"
             style="fill:#ffffff;fill-opacity:1" />
        </g>
      </g>
      <g
         id="g4585"
         style="fill:#ffffff;fill-opacity:1">
        <g
           id="g4583"
           style="fill:#ffffff;fill-opacity:1">
          <path
             id="path4581"
             d="m 256,118 c -76.094,0 -138,61.906 -138,138 0,76.094 61.906,138 138,138 76.094,0 138,-61.906 138,-138 0,-76.094 -61.906,-138 -138,-138 z m 0,236 c -54.037,0 -98,-43.963 -98,-98 0,-54.037 43.963,-98 98,-98 54.037,0 98,43.963 98,98 0,54.037 -43.963,98 -98,98 z"
             inkscape:connector-curvature="0"
             style="fill:#ffffff;fill-opacity:1" />
        </g>
      </g>
      <g
         id="g4591"
         style="fill:#ffffff;fill-opacity:1">
        <g
           id="g4589"
           style="fill:#ffffff;fill-opacity:1">
          <circle
             id="circle4587"
             r="20"
             cy="116"
             cx="396"
             style="fill:#ffffff;fill-opacity:1" />
        </g>
      </g>
      <g
         id="g4593"
         style="fill:#ffffff;fill-opacity:1" />
      <g
         id="g4595"
         style="fill:#ffffff;fill-opacity:1" />
      <g
         id="g4597"
         style="fill:#ffffff;fill-opacity:1" />
      <g
         id="g4599"
         style="fill:#ffffff;fill-opacity:1" />
      <g
         id="g4601"
         style="fill:#ffffff;fill-opacity:1" />
      <g
         id="g4603"
         style="fill:#ffffff;fill-opacity:1" />
      <g
         id="g4605"
         style="fill:#ffffff;fill-opacity:1" />
      <g
         id="g4607"
         style="fill:#ffffff;fill-opacity:1" />
      <g
         id="g4609"
         style="fill:#ffffff;fill-opacity:1" />
      <g
         id="g4611"
         style="fill:#ffffff;fill-opacity:1" />
      <g
         id="g4613"
         style="fill:#ffffff;fill-opacity:1" />
      <g
         id="g4615"
         style="fill:#ffffff;fill-opacity:1" />
      <g
         id="g4617"
         style="fill:#ffffff;fill-opacity:1" />
      <g
         id="g4619"
         style="fill:#ffffff;fill-opacity:1" />
      <g
         id="g4621"
         style="fill:#ffffff;fill-opacity:1" />
    </g>
  </g>
</svg>
