<?xml version="1.0" encoding="UTF-8" standalone="no"?>
<!-- Generator: Adobe Illustrator 19.0.0, SVG Export Plug-In . SVG Version: 6.00 Build 0)  -->

<svg
   xmlns:dc="http://purl.org/dc/elements/1.1/"
   xmlns:cc="http://creativecommons.org/ns#"
   xmlns:rdf="http://www.w3.org/1999/02/22-rdf-syntax-ns#"
   xmlns:svg="http://www.w3.org/2000/svg"
   xmlns="http://www.w3.org/2000/svg"
   xmlns:sodipodi="http://sodipodi.sourceforge.net/DTD/sodipodi-0.dtd"
   xmlns:inkscape="http://www.inkscape.org/namespaces/inkscape"
   version="1.1"
   id="Capa_1"
   x="0px"
   y="0px"
   viewBox="0 0 512.001 512.001"
   style="enable-background:new 0 0 512.001 512.001;"
   xml:space="preserve"
   sodipodi:docname="laptop.svg"
   inkscape:version="0.92.4 (5da689c313, 2019-01-14)"><metadata
   id="metadata941"><rdf:RDF><cc:Work
       rdf:about=""><dc:format>image/svg+xml</dc:format><dc:type
         rdf:resource="http://purl.org/dc/dcmitype/StillImage" /></cc:Work></rdf:RDF></metadata><defs
   id="defs939" /><sodipodi:namedview
   pagecolor="#ffffff"
   bordercolor="#666666"
   borderopacity="1"
   objecttolerance="10"
   gridtolerance="10"
   guidetolerance="10"
   inkscape:pageopacity="0"
   inkscape:pageshadow="2"
   inkscape:window-width="1920"
   inkscape:window-height="1017"
   id="namedview937"
   showgrid="false"
   inkscape:zoom="0.46093662"
   inkscape:cx="-14.101722"
   inkscape:cy="256.00049"
   inkscape:window-x="1912"
   inkscape:window-y="-8"
   inkscape:window-maximized="1"
   inkscape:current-layer="Capa_1" />
<g
   id="g898"
   style="fill:#ffffff;fill-opacity:1">
	<g
   id="g896"
   style="fill:#ffffff;fill-opacity:1">
		<path
   d="M504.396,373.095h-26.81V101.172c0-16.955-13.745-30.7-30.7-30.7H62.714c-16.955,0-30.7,13.745-30.7,30.7v271.923H7.604    c-4.199,0-7.604,3.405-7.604,7.604v16.793c0,24.32,19.716,44.037,44.037,44.037H330.52c4.199,0,7.604-3.405,7.604-7.604    s-3.405-7.604-7.604-7.604H44.037c-15.922-0.001-28.829-12.907-28.829-28.829v-9.189h24.411h154.803    c0.27,14.719,12.319,26.613,27.103,26.613h68.95c14.783,0,26.833-11.894,27.103-26.613h152.406h26.81v9.189    c0,15.922-12.907,28.829-28.829,28.829H366.007c-4.199,0-7.604,3.405-7.604,7.604s3.405,7.604,7.604,7.604h101.957    c24.32,0,44.037-19.716,44.037-44.037v-16.793C512,376.499,508.595,373.095,504.396,373.095z M290.474,399.707h-68.95    c-6.397,0-11.633-5.071-11.896-11.405h92.742C302.107,394.635,296.872,399.707,290.474,399.707z M462.378,373.095H47.223V101.172    c0-8.543,6.949-15.492,15.492-15.492h384.171c8.543,0,15.492,6.949,15.492,15.492V373.095z"
   id="path894"
   style="fill:#ffffff;fill-opacity:1" />
	</g>
</g>
<g
   id="g904"
   style="fill:#ffffff;fill-opacity:1">
	<g
   id="g902"
   style="fill:#ffffff;fill-opacity:1">
		<path
   d="M441.594,98.861H147.015c-4.199,0-7.604,3.405-7.604,7.604c0,4.199,3.405,7.604,7.604,7.604H433.99v230.638H75.611    V114.068h35.917c4.199,0,7.604-3.405,7.604-7.604c0-4.199-3.405-7.604-7.604-7.604H68.007c-4.199,0-7.604,3.405-7.604,7.604    v245.846c0,4.199,3.405,7.604,7.604,7.604h373.587c4.199,0,7.604-3.405,7.604-7.604V106.465    C449.198,102.265,445.794,98.861,441.594,98.861z"
   id="path900"
   style="fill:#ffffff;fill-opacity:1" />
	</g>
</g>
<g
   id="g906"
   style="fill:#ffffff;fill-opacity:1">
</g>
<g
   id="g908"
   style="fill:#ffffff;fill-opacity:1">
</g>
<g
   id="g910"
   style="fill:#ffffff;fill-opacity:1">
</g>
<g
   id="g912"
   style="fill:#ffffff;fill-opacity:1">
</g>
<g
   id="g914"
   style="fill:#ffffff;fill-opacity:1">
</g>
<g
   id="g916"
   style="fill:#ffffff;fill-opacity:1">
</g>
<g
   id="g918"
   style="fill:#ffffff;fill-opacity:1">
</g>
<g
   id="g920"
   style="fill:#ffffff;fill-opacity:1">
</g>
<g
   id="g922"
   style="fill:#ffffff;fill-opacity:1">
</g>
<g
   id="g924"
   style="fill:#ffffff;fill-opacity:1">
</g>
<g
   id="g926"
   style="fill:#ffffff;fill-opacity:1">
</g>
<g
   id="g928"
   style="fill:#ffffff;fill-opacity:1">
</g>
<g
   id="g930"
   style="fill:#ffffff;fill-opacity:1">
</g>
<g
   id="g932"
   style="fill:#ffffff;fill-opacity:1">
</g>
<g
   id="g934"
   style="fill:#ffffff;fill-opacity:1">
</g>
</svg>