<?xml version="1.0" encoding="UTF-8" standalone="no"?>
<svg
   xmlns:dc="http://purl.org/dc/elements/1.1/"
   xmlns:cc="http://creativecommons.org/ns#"
   xmlns:rdf="http://www.w3.org/1999/02/22-rdf-syntax-ns#"
   xmlns:svg="http://www.w3.org/2000/svg"
   xmlns="http://www.w3.org/2000/svg"
   xmlns:sodipodi="http://sodipodi.sourceforge.net/DTD/sodipodi-0.dtd"
   xmlns:inkscape="http://www.inkscape.org/namespaces/inkscape"
   height="512pt"
   viewBox="0 0 512 512"
   width="512pt"
   version="1.1"
   id="svg831"
   sodipodi:docname="python.svg"
   inkscape:version="0.92.4 (5da689c313, 2019-01-14)">
  <metadata
     id="metadata837">
    <rdf:RDF>
      <cc:Work
         rdf:about="">
        <dc:format>image/svg+xml</dc:format>
        <dc:type
           rdf:resource="http://purl.org/dc/dcmitype/StillImage" />
      </cc:Work>
    </rdf:RDF>
  </metadata>
  <defs
     id="defs835" />
  <sodipodi:namedview
     pagecolor="#ffffff"
     bordercolor="#666666"
     borderopacity="1"
     objecttolerance="10"
     gridtolerance="10"
     guidetolerance="10"
     inkscape:pageopacity="0"
     inkscape:pageshadow="2"
     inkscape:window-width="1920"
     inkscape:window-height="1017"
     id="namedview833"
     showgrid="false"
     inkscape:zoom="1.2392578"
     inkscape:cx="341.33333"
     inkscape:cy="341.33333"
     inkscape:window-x="1912"
     inkscape:window-y="-8"
     inkscape:window-maximized="1"
     inkscape:current-layer="svg831" />
  <path
     d="m116 296c0-30.328125 24.671875-55 55-55h170c13.785156 0 25-11.214844 25-25v-141c0-41.355469-33.644531-75-75-75h-70c-41.355469 0-75 33.644531-75 75v41h110c8.285156 0 15 6.714844 15 15s-6.714844 15-15 15h-181c-41.355469 0-75 33.644531-75 75v70c0 41.355469 33.644531 75 75 75h41zm105-220c-8.285156 0-15-6.714844-15-15s6.714844-15 15-15 15 6.714844 15 15-6.714844 15-15 15zm0 0"
     id="path827"
     style="fill:#ffffff;fill-opacity:1" />
  <path
     d="m437 146h-41v70c0 30.328125-24.671875 55-55 55h-170c-13.785156 0-25 11.214844-25 25v141c0 41.355469 33.644531 75 75 75h70c41.355469 0 75-33.644531 75-75v-41h-110c-8.285156 0-15-6.714844-15-15s6.714844-15 15-15h181c41.355469 0 75-33.644531 75-75v-70c0-41.355469-33.644531-75-75-75zm-146 290c8.285156 0 15 6.714844 15 15s-6.714844 15-15 15-15-6.714844-15-15 6.714844-15 15-15zm0 0"
     id="path829"
     style="fill:#ffffff;fill-opacity:1" />
</svg>
